<svg width="101" height="80" viewBox="0 0 101 80" fill="none" xmlns="http://www.w3.org/2000/svg">
<circle cx="64" cy="40" r="37" fill="#4ED4CE" fill-opacity="0.33"/>
<g clip-path="url(#clip0_1_3798)">
<path fill-rule="evenodd" clip-rule="evenodd" d="M39.9998 6.66666C58.4098 6.66666 73.3332 21.59 73.3332 40C73.3332 58.41 58.4098 73.3333 39.9998 73.3333C21.5898 73.3333 6.6665 58.41 6.6665 40C6.6665 21.59 21.5898 6.66666 39.9998 6.66666ZM39.9998 13.3333C32.9274 13.3333 26.1446 16.1428 21.1437 21.1438C16.1427 26.1448 13.3332 32.9276 13.3332 40C13.3332 47.0724 16.1427 53.8552 21.1437 58.8562C26.1446 63.8571 32.9274 66.6667 39.9998 66.6667C47.0723 66.6667 53.855 63.8571 58.856 58.8562C63.857 53.8552 66.6665 47.0724 66.6665 40C66.6665 32.9276 63.857 26.1448 58.856 21.1438C53.855 16.1428 47.0723 13.3333 39.9998 13.3333ZM44.9998 23.3333C48.0415 23.3289 50.9646 24.5126 53.1463 26.6321C55.3279 28.7516 56.5955 31.6393 56.679 34.6799C56.7624 37.7204 55.6551 40.6733 53.593 42.9093C51.531 45.1453 48.6772 46.4875 45.6398 46.65L44.9998 46.6667H36.6665V53.3333C36.6656 54.1829 36.3402 55.0001 35.757 55.6179C35.1738 56.2357 34.3767 56.6074 33.5285 56.6572C32.6804 56.707 31.8452 56.4311 31.1937 55.8858C30.5422 55.3405 30.1235 54.567 30.0232 53.7233L29.9998 53.3333V30C29.9993 28.3181 30.6345 26.6981 31.7782 25.4648C32.9218 24.2316 34.4893 23.4761 36.1665 23.35L36.6665 23.3333H44.9998ZM44.9998 30H36.6665V40H44.9998C46.2839 39.9994 47.5185 39.5047 48.4478 38.6186C49.3771 37.7325 49.9299 36.5229 49.9916 35.2403C50.0533 33.9577 49.6192 32.7006 48.7793 31.7293C47.9393 30.7581 46.7579 30.1472 45.4798 30.0233L44.9998 30Z" fill="#202020"/>
</g>
<defs>
<clipPath id="clip0_1_3798">
<rect width="80" height="80" fill="white"/>
</clipPath>
</defs>
</svg>
