<svg width="101" height="80" viewBox="0 0 101 80" fill="none" xmlns="http://www.w3.org/2000/svg">
<circle cx="64" cy="40" r="37" fill="#4ED4CE" fill-opacity="0.33"/>
<path d="M58.7183 34.449V33.949H58.2183H52.4368C51.1307 33.949 50.046 32.8582 50.046 31.5102C50.046 30.1622 51.1307 29.0714 52.4368 29.0714H58.2183C61.1142 29.0714 63.4998 31.4847 63.4998 34.449V42.2367C63.4998 43.4495 63.1024 44.6324 62.336 45.5997L62.3349 45.601L52.2767 58.3827C52.2764 58.3831 52.2761 58.3835 52.2757 58.3839C51.2687 59.6494 49.7634 60.398 48.1584 60.398H37.983H37.483V60.898C37.483 65.508 33.8255 69.2143 29.3107 69.2143C24.7959 69.2143 21.1384 65.508 21.1384 60.898V60.398H20.6384H17.7477C16.4417 60.398 15.3569 59.3072 15.3569 57.9592V52.0816C15.3569 45.8553 20.3153 40.8265 26.42 40.8265H35.0922C36.3983 40.8265 37.483 41.9173 37.483 43.2653V55.0204V55.5204H37.983H48.1584H48.4012L48.5514 55.3296L58.6112 42.5459L58.7183 42.4099V42.2367V34.449ZM26.42 60.398H25.92V60.898C25.92 62.7826 27.4369 64.3367 29.3107 64.3367C31.1845 64.3367 32.7015 62.7826 32.7015 60.898V60.398H32.2015H26.42Z" fill="#202020" stroke="#202020"/>
<path d="M25.7477 32H34.42C36.0099 32 37.3107 33.3055 37.3107 34.9011C37.3107 36.4967 36.0099 37.8022 34.42 37.8022H25.7477C24.1578 37.8022 22.8569 36.4967 22.8569 34.9011C22.8569 33.3055 24.1578 32 25.7477 32ZM63.3275 52.3077C58.5289 52.3077 54.6553 56.1952 54.6553 61.011C54.6553 65.8268 58.5289 69.7143 63.3275 69.7143C68.1262 69.7143 71.9998 65.8268 71.9998 61.011C71.9998 56.1952 68.1262 52.3077 63.3275 52.3077ZM63.3275 63.9121C61.7376 63.9121 60.4368 62.6066 60.4368 61.011C60.4368 59.4154 61.7376 58.1099 63.3275 58.1099C64.9174 58.1099 66.2183 59.4154 66.2183 61.011C66.2183 62.6066 64.9174 63.9121 63.3275 63.9121Z" fill="#202020"/>
<path d="M17.7143 34.2857C17.7143 34.2857 27.4286 27.0857 27.4286 19.2857C27.4286 14.3153 23.0796 10.2857 17.7143 10.2857C12.349 10.2857 8 14.3153 8 19.2857C8 27.0857 17.7143 34.2857 17.7143 34.2857Z" stroke="#202020" strokeWidth="3" stroke-linejoin="round"/>
<path d="M16 16V25.1429" stroke="#202020" strokeWidth="3" strokeLinecap="round" stroke-linejoin="round"/>
<path d="M16 16H19.4286C20.0348 16 20.6162 16.2408 21.0448 16.6695C21.4735 17.0981 21.7143 17.6795 21.7143 18.2857C21.7143 18.8919 21.4735 19.4733 21.0448 19.902C20.6162 20.3306 20.0348 20.5714 19.4286 20.5714H16V16Z" stroke="#202020" strokeWidth="3" stroke-linejoin="round"/>
</svg>
