<svg width="101" height="80" viewBox="0 0 101 80" fill="none" xmlns="http://www.w3.org/2000/svg">
<circle cx="64" cy="40" r="37" fill="#4ED4CE" fill-opacity="0.33"/>
<path d="M20.0998 40.1L26.7665 51.6667L18.3332 62.2667L6.6665 42.0667L20.0998 40.1ZM56.6665 60V50.9667C59.5998 49.6667 61.6665 46.7667 61.6665 43.3333C61.6665 41.4333 60.9998 39.6667 59.8998 38.3333L66.4665 34.5C69.8332 32.5333 70.9998 28.2333 69.0332 24.8667L64.4332 16.8667C63.4953 15.25 61.9564 14.0696 60.152 13.5826C58.3476 13.0956 56.4238 13.3415 54.7998 14.2667L27.6998 30C24.5332 31.7667 23.4332 35.8333 25.2665 39.0333L30.2665 47.7C32.0998 50.8667 36.1998 51.9667 39.3665 50.1333L45.6332 46.5333C46.4665 48.5 48.0332 50.1 49.9998 50.9667V60C49.9998 63.6667 52.9998 66.6667 56.6665 66.6667H73.3332V60H56.6665Z" fill="#202020"/>
</svg>
