<svg width="30" height="30" viewBox="0 0 30 30" fill="none" xmlns="http://www.w3.org/2000/svg">
<circle cx="15" cy="15" r="15" fill="#4ED4CE"/>
<path d="M8.67076 10.1894C8.67076 9.74044 8.83079 9.37007 9.15085 9.07827C9.4709 8.78646 9.88698 8.64056 10.3991 8.64056C10.902 8.64056 11.3089 8.78421 11.6199 9.07154C11.9399 9.36784 12.0999 9.75391 12.0999 10.2298C12.0999 10.6608 11.9445 11.0199 11.6336 11.3072C11.3135 11.6035 10.8929 11.7517 10.3716 11.7517H10.3579C9.85497 11.7517 9.44805 11.6035 9.13713 11.3072C8.82621 11.0109 8.67076 10.6383 8.67076 10.1894ZM8.84908 21.9739V12.9773H11.8942V21.9739H8.84908ZM13.5813 21.9739H16.6265V16.9503C16.6265 16.6361 16.663 16.3936 16.7362 16.2231C16.8642 15.9178 17.0585 15.6596 17.3192 15.4486C17.5798 15.2376 17.9067 15.1321 18.2999 15.1321C19.3241 15.1321 19.8362 15.81 19.8362 17.1658V21.9739H22.8813V16.8156C22.8813 15.4868 22.5612 14.4789 21.9211 13.7921C21.281 13.1052 20.4351 12.7618 19.3835 12.7618C18.2039 12.7618 17.2849 13.2601 16.6265 14.2567V14.2837H16.6127L16.6265 14.2567V12.9773H13.5813C13.5996 13.2646 13.6088 14.1579 13.6088 15.6574C13.6088 17.1568 13.5996 19.2623 13.5813 21.9739Z" fill="white"/>
</svg>
